<?xml version="1.0" encoding="UTF-8" standalone="no"?>
<svg
   xmlns:dc="http://purl.org/dc/elements/1.1/"
   xmlns:cc="http://creativecommons.org/ns#"
   xmlns:rdf="http://www.w3.org/1999/02/22-rdf-syntax-ns#"
   xmlns:svg="http://www.w3.org/2000/svg"
   xmlns="http://www.w3.org/2000/svg"
   xmlns:sodipodi="http://sodipodi.sourceforge.net/DTD/sodipodi-0.dtd"
   xmlns:inkscape="http://www.inkscape.org/namespaces/inkscape"
   version="1.1"
   height="128"
   width="256"
   viewBox="0 0 256 128"
   id="svg10"
   sodipodi:docname="nextcloud-logo.svg"
   inkscape:version="0.92.2 (unknown)">
  <metadata
     id="metadata16">
    <rdf:RDF>
      <cc:Work
         rdf:about="">
        <dc:format>image/svg+xml</dc:format>
        <dc:type
           rdf:resource="http://purl.org/dc/dcmitype/StillImage" />
        <dc:title></dc:title>
      </cc:Work>
    </rdf:RDF>
  </metadata>
  <defs
     id="defs14" />
  <sodipodi:namedview
     pagecolor="#ffffff"
     bordercolor="#666666"
     borderopacity="1"
     objecttolerance="10"
     gridtolerance="10"
     guidetolerance="10"
     inkscape:pageopacity="0"
     inkscape:pageshadow="2"
     inkscape:window-width="1920"
     inkscape:window-height="1053"
     id="namedview12"
     showgrid="false"
     inkscape:pagecheckerboard="true"
     inkscape:zoom="1.8285339"
     inkscape:cx="82.083059"
     inkscape:cy="-19.021637"
     inkscape:window-x="0"
     inkscape:window-y="27"
     inkscape:window-maximized="1"
     inkscape:current-layer="svg10"
     inkscape:snap-object-midpoints="true" />
  <g
     stroke="#fff"
     stroke-width="22"
     fill="none"
     id="g8">
    <circle
       cy="64"
       cx="40"
       r="26"
       id="circle2" />
    <circle
       cy="64"
       cx="216"
       r="26"
       id="circle4" />
    <circle
       cy="64"
       cx="128"
       r="46"
       id="circle6" />
  </g>
  <g
     id="g879"
     transform="translate(1.8781731,-1.8524249)">
    <path
       style="fill:#202020;fill-opacity:1;stroke-width:0.09788252"
       id="path3"
       d="m 158.28243,90.111054 c -7.2e-4,-7.2e-4 -0.002,-0.002 -0.002,-0.003 -0.59405,-0.67049 -0.87703,-1.91359 -1.18135,-3.23795 -0.30353,-1.32337 -0.64309,-2.7505 -1.72958,-3.675485 -0.002,-0.0022 -0.005,-0.0036 -0.006,-0.0058 -0.21535,-0.187938 -0.43656,-0.346402 -0.65875,-0.478643 -0.22308,-0.132148 -0.44929,-0.23982 -0.6753,-0.324969 1.51033,-4.479104 0.91814,-8.939514 -0.60686,-12.969434 -1.87054,-4.946984 -5.13688,-9.256652 -7.63191,-12.204876 -2.79259,-3.522791 -5.5236,-6.866458 -5.46967,-11.805612 0.0831,-7.53793 0.82896,-21.516534 -12.43608,-21.535133 -0.53933,-9.39e-4 -1.10215,0.02156 -1.68847,0.06852 -14.82333,1.193189 -10.89139,16.854389 -11.11162,22.097956 -0.27114,3.83504 -1.04833,6.857649 -3.68626,10.606551 -3.09799,3.684297 -7.46159,9.648281 -9.52789,15.856968 -0.97491,2.929622 -1.43887,5.915923 -1.01113,8.74277 -0.13409,0.120394 -0.26134,0.246755 -0.3837,0.375969 -0.909323,0.971966 -1.581772,2.148418 -2.330573,2.940288 -0.699862,0.69898 -1.696305,0.96424 -2.792589,1.35665 -1.096284,0.39359 -2.299263,0.97296 -3.029464,2.37464 0,0 0,7.2e-4 -9.4e-4,7.2e-4 -9.39e-4,0.002 -0.0019,0.005 -0.0038,0.007 -0.343565,0.64113 -0.455156,1.33316 -0.455156,2.03498 0,0.64896 0.09593,1.30683 0.192832,1.94003 0.201636,1.3175 0.406213,2.56344 0.135076,3.40729 -0.867236,2.3717 -0.978826,4.01123 -0.368037,5.201576 0.612743,1.19221 1.870533,1.71784 3.29277,2.0154 2.844463,0.59317 6.696141,0.44634 9.731481,2.05554 l 0.26134,-0.49236 -0.25841,0.49333 c 3.2497,1.69924 6.54443,2.3023 9.17258,1.70218 1.90675,-0.4345 3.45329,-1.56994 4.2481,-3.31626 2.05553,-0.01 4.31172,-0.88095 7.92555,-1.07955 2.45195,-0.19782 5.5147,0.87106 9.0375,0.67529 0.092,0.38175 0.22522,0.74978 0.40719,1.09923 0.002,0.003 0.004,0.007 0.006,0.01 1.36536,2.73093 3.90247,3.97991 6.60706,3.76652 2.70734,-0.21348 5.58607,-1.80985 7.9138,-4.57895 l -0.42676,-0.35824 0.42981,0.35434 c 2.21801,-2.68982 5.89937,-3.804696 8.34154,-5.276846 1.22059,-0.73608 2.21019,-1.65803 2.28751,-2.99717 0.0761,-1.33805 -0.70985,-2.83761 -2.51675,-4.84323 z"
       inkscape:connector-curvature="0" />
    <path
       style="fill:#f8bf11;fill-opacity:1;stroke-width:0.09788252"
       id="path5"
       d="m 159.68509,94.890664 c -0.047,0.82603 -0.64505,1.43985 -1.75014,2.10545 -2.20832,1.33218 -6.12265,2.49111 -8.62149,5.518616 -2.17113,2.58312 -4.81788,4.00143 -7.14836,4.18546 -2.33049,0.18402 -4.34109,-0.78307 -5.52743,-3.16259 l -0.002,-0.005 -0.003,-0.006 c -0.73617,-1.39973 -0.4298,-3.606976 0.1898,-5.936476 0.61959,-2.32862 1.51032,-4.72087 1.62974,-6.66384 v -0.006 c 0.12519,-2.49004 0.26526,-4.66509 0.68312,-6.34377 0.41894,-1.678691 1.07769,-2.814127 2.24455,-3.4533 0.0548,-0.02933 0.10855,-0.05772 0.16239,-0.08417 0.13223,2.156351 1.20013,4.35684 3.0872,4.83245 2.06543,0.54433 5.04203,-1.22744 6.29884,-2.673166 0.25147,-0.0099 0.49617,-0.02254 0.73412,-0.02839 1.10314,-0.02651 2.02715,0.0372 2.9727,0.863316 l 0.003,0.003 0.003,0.002 c 0.72629,0.61568 1.07181,1.77853 1.37133,3.08037 0.29962,1.30291 0.53836,2.72113 1.43702,3.73225 l 7.2e-4,7.3e-4 7.2e-4,0.002 c 1.72674,1.91557 2.28174,3.20957 2.23378,4.03668 z"
       inkscape:connector-curvature="0" />
    <path
       style="fill:#f8bf11;fill-opacity:1;stroke-width:0.09788252"
       id="path7"
       d="m 117.71796,100.99657 -7.3e-4,0.006 v 0.007 c -0.19967,2.61738 -1.67574,4.04255 -3.9427,4.56035 -2.265,0.5178 -5.33754,0.002 -8.40517,-1.60234 -9.4e-4,0 -0.002,-7.2e-4 -0.003,-7.2e-4 -3.39457,-1.7981 -7.432224,-1.61898 -10.023172,-2.16026 -1.294988,-0.27016 -2.140693,-0.67735 -2.528307,-1.43301 -0.387617,-0.756626 -0.396426,-2.075096 0.427748,-4.323456 l 0.0038,-0.01 0.0029,-0.01 c 0.408172,-1.25779 0.105714,-2.63402 -0.09201,-3.92607 -0.197722,-1.29097 -0.294626,-2.46654 0.146825,-3.28493 l 0.0038,-0.008 c 0.564782,-1.08846 1.39287,-1.47803 2.420635,-1.84607 1.028745,-0.36902 2.247383,-0.65865 3.209568,-1.62388 l 0.0059,-0.005 0.0049,-0.005 c 0.889753,-0.9387 1.558293,-2.116222 2.340373,-2.951164 0.65972,-0.704753 1.32043,-1.17165 2.3159,-1.178505 0.0117,7.22e-4 0.0225,7.22e-4 0.0343,0 0.17423,7.22e-4 0.35923,0.01568 0.55499,0.04609 1.32142,0.199677 2.4735,1.123596 3.58348,2.629029 l 3.20468,5.84065 7.2e-4,0.003 0.002,0.002 c 0.85255,1.78049 2.65359,3.73912 4.17958,5.7369 1.52598,1.99691 2.70645,4.00251 2.55278,5.537306 z"
       inkscape:connector-curvature="0" />
    <path
       style="fill:#f8bf11;fill-opacity:1;stroke-width:0.09788252"
       id="path9"
       d="m 133.70022,46.548445 c -0.25743,-0.504094 -0.78306,-0.983716 -1.67771,-1.350776 l -0.002,-9.39e-4 -0.003,-9.39e-4 c -1.86074,-0.796761 -2.66828,-0.853536 -3.70681,-1.528927 -1.69043,-1.086493 -3.08721,-1.467257 -4.24811,-1.462361 -0.60785,0.002 -1.15109,0.109626 -1.63757,0.277986 -1.4144,0.486477 -2.35309,1.501514 -2.94137,2.05847 l -7.3e-4,9.39e-4 c 0,9.39e-4 -7.2e-4,9.39e-4 -7.2e-4,0.002 -0.1155,0.109627 -0.26428,0.209468 -0.62449,0.473751 -0.36314,0.26526 -0.90737,0.664623 -1.69043,1.251917 -0.69595,0.521716 -0.92205,1.20102 -0.68126,1.996805 0.23981,0.795784 1.00721,1.713922 2.41084,2.507748 l 0.002,0.0019 0.003,9.39e-4 c 0.87115,0.511926 1.46628,1.201997 2.1495,1.751121 0.34161,0.274069 0.70084,0.518775 1.13348,0.703776 0.43264,0.184995 0.93772,0.310285 1.57003,0.347483 1.48391,0.08614 2.57627,-0.359228 3.54042,-0.911288 0.9661,-0.551078 1.7843,-1.225487 2.72309,-1.529904 l 0.002,-9.4e-4 0.002,-9.39e-4 c 1.92427,-0.600998 3.29668,-1.811804 3.72629,-2.961921 0.21534,-0.57555 0.20849,-1.121733 -0.048,-1.625832 z"
       inkscape:connector-curvature="0" />
    <path
       sodipodi:nodetypes="sscccccssszzs"
       style="fill:#202020;fill-opacity:1;stroke-width:0.09788252"
       inkscape:connector-curvature="0"
       id="path11"
       d="m 128.81784,49.388996 c -1.53096,0.798007 -3.3192,1.765801 -5.22204,1.765801 -1.90186,0 -3.40435,-0.878984 -4.48498,-1.735457 -0.54031,-0.427743 -0.97882,-0.853537 -1.30966,-1.162845 -0.57402,-0.4531 -0.50526,-1.088615 -0.26942,-1.069853 0.39531,0.04935 0.45508,0.56984 0.70402,0.802634 0.33672,0.315186 0.75859,0.723352 1.26953,1.128587 1.02189,0.809489 2.38442,1.597442 4.09051,1.597442 1.70316,0 3.69132,-0.999887 4.9049,-1.680642 0.68755,-0.385683 1.56242,-1.077009 2.27641,-1.601106 0.54625,-0.400972 0.52634,-0.883799 0.97736,-0.831235 0.45104,0.05257 0.11739,0.534424 -0.51425,1.08567 -0.63163,0.55124 -1.61977,1.282649 -2.42238,1.701004 z" />
    <path
       id="path13"
       d="m 152.2607,82.058267 c -0.2124,-0.0079 -0.42187,-0.0065 -0.62547,-0.0022 -0.0186,7.23e-4 -0.0372,7.23e-4 -0.0568,7.23e-4 0.52563,-1.660081 -0.63721,-2.884596 -3.73617,-4.286269 -3.21349,-1.413326 -5.77409,-1.273457 -6.20673,1.594502 -0.0274,0.149766 -0.0499,0.303441 -0.0665,0.458091 -0.24079,0.08418 -0.48159,0.189895 -0.72433,0.322036 -1.50837,0.826128 -2.33255,2.323729 -2.79064,4.162064 -0.45711,1.83628 -0.58925,4.05527 -0.71454,6.5503 0,7.2e-4 0,7.2e-4 0,0.002 -0.0773,1.25397 -0.59414,2.95115 -1.11684,4.74837 -5.26412,3.75566 -12.57007,5.382466 -18.77387,1.14807 -0.41991,-0.66462 -0.90248,-1.32337 -1.39874,-1.97332 -0.31714,-0.41492 -0.64309,-0.8271 -0.9661,-1.2342 0.63623,7.3e-4 1.17753,-0.10385 1.61506,-0.30147 0.54423,-0.24765 0.92597,-0.64309 1.11586,-1.15218 0.37783,-1.017 -0.002,-2.45195 -1.21277,-4.09149 -1.2108,-1.63855 -3.26144,-3.48755 -6.27427,-5.33558 0,0 0,0 0,-7.23e-4 -2.2141,-1.377206 -3.45133,-3.064803 -4.0308,-4.897059 -0.58044,-1.83334 -0.4992,-3.815464 -0.0519,-5.772138 0.85745,-3.755751 3.05981,-7.408727 4.4654,-9.701133 0.37783,-0.277984 0.13508,0.516814 -1.42321,3.410223 -1.39581,2.644891 -4.00633,8.748744 -0.43264,13.513765 0.0959,-3.390755 0.90541,-6.848944 2.265,-10.083958 1.98017,-4.487918 6.12158,-12.27251 6.45047,-18.476304 0.17032,0.123331 0.75272,0.516821 1.0121,0.664623 7.2e-4,9.39e-4 7.2e-4,9.39e-4 0.002,9.39e-4 0.75956,0.447324 1.33022,1.101179 2.06923,1.695328 0.74098,0.595121 1.66596,1.109006 3.06372,1.190247 0.1341,0.0079 0.26527,0.01174 0.39349,0.01174 1.44084,0 2.56453,-0.469836 3.50028,-1.005256 1.0171,-0.581422 1.82943,-1.225487 2.59987,-1.476066 7.2e-4,-9.39e-4 0.002,-9.39e-4 0.003,-9.39e-4 1.62778,-0.508989 2.92081,-1.409505 3.65679,-2.458809 1.26464,4.984179 4.20503,12.183434 6.09524,15.696439 1.00525,1.863688 3.00392,5.824006 3.86734,10.595781 0.54716,-0.01669 1.15012,0.06263 1.79517,0.227965 2.25814,-5.854346 -1.91459,-12.158967 -3.8233,-13.914974 -0.77034,-0.747822 -0.80753,-1.082579 -0.42481,-1.066917 2.06924,1.831382 4.78734,5.512741 5.77605,9.668834 0.45114,1.89491 0.54717,3.887891 0.0635,5.854354 0.23589,0.09788 0.47668,0.204567 0.72041,0.320172 3.62459,1.764719 4.9646,3.299523 4.32053,5.39421 z"
       style="fill:#ffffff;stroke-width:0.09788252"
       inkscape:connector-curvature="0" />
    <path
       id="path4166"
       d="m 126.43029,66.233097 a 16.688443,24.698658 0 0 0 -15.49067,15.66178 l 0.36705,0.228456 v 0.02066 c 2.82611,1.794421 4.8388,3.594691 6.08268,5.278011 v 1.9e-4 h 1.9e-4 c 1.31484,1.7804 1.89992,3.51446 1.34283,5.01399 l -1.9e-4,4.9e-4 -2e-4,4.7e-4 c -0.28204,0.75614 -0.88292,1.3621 -1.62749,1.7009 l -0.001,4.9e-4 -7.2e-4,4.7e-4 c -0.0782,0.0353 -0.16185,0.0615 -0.24299,0.0918 0.44537,0.58427 0.88161,1.1862 1.28357,1.80451 5.67596,3.77755 12.27883,2.37993 17.23421,-1.0377 0.48395,-1.66767 0.92471,-3.2228 0.98532,-4.19499 0.12547,-2.49804 0.25147,-4.76061 0.74215,-6.73172 v -2e-4 c 0.49453,-1.984567 1.45651,-3.790622 3.27027,-4.784006 l 7.2e-4,-4.77e-4 7.2e-4,-4.84e-4 c 0.10193,-0.05548 0.20428,-0.08789 0.30646,-0.136113 0.0327,-0.196253 0.0781,-0.385195 0.13325,-0.567418 a 16.688443,24.698658 0 0 0 -14.38571,-12.34908 z m 14.24248,12.956251 -0.005,0.0302 c 4.9e-4,-0.0036 0.002,-0.0065 0.002,-0.01 7.2e-4,-0.0065 0.001,-0.01365 0.003,-0.02023 z"
       style="color:#000000;clip-rule:nonzero;display:inline;overflow:visible;visibility:visible;opacity:1;isolation:auto;mix-blend-mode:normal;color-interpolation:sRGB;color-interpolation-filters:linearRGB;solid-color:#000000;solid-opacity:1;fill:#e6e6e6;fill-opacity:1;fill-rule:nonzero;stroke:none;stroke-width:5.38353872;stroke-linecap:butt;stroke-linejoin:miter;stroke-miterlimit:4;stroke-dasharray:none;stroke-dashoffset:0;stroke-opacity:1;color-rendering:auto;image-rendering:auto;shape-rendering:auto;text-rendering:auto;enable-background:accumulate"
       inkscape:connector-curvature="0" />
    <path
       sodipodi:nodetypes="ccccccccccccccccccccccccscccc"
       style="fill:#ffffff;stroke-width:0.09788252"
       inkscape:connector-curvature="0"
       id="path15"
       d="m 133.87054,40.806657 c 0.008,0.987634 -0.16249,1.828449 -0.53738,2.686876 -0.21338,0.489413 -0.45897,0.90052 -0.7536,1.256812 -0.0999,-0.04796 -0.2036,-0.09397 -0.31136,-0.138016 -0.37293,-0.159547 -0.7028,-0.290709 -0.99831,-0.402294 -0.2957,-0.111586 -0.5264,-0.187832 -0.76435,-0.270054 0.17237,-0.208491 0.51193,-0.454174 0.63829,-0.762505 0.19185,-0.464942 0.28581,-0.919115 0.30344,-1.460407 0,-0.02156 0.006,-0.04014 0.006,-0.06559 0.0108,-0.518775 -0.0577,-0.962181 -0.20947,-1.416359 -0.15857,-0.476686 -0.3603,-0.819275 -0.6519,-1.104116 -0.29267,-0.284836 -0.58435,-0.414039 -0.93477,-0.425788 -0.0166,-9.39e-4 -0.0323,-9.39e-4 -0.0489,-9.39e-4 -0.32888,9.39e-4 -0.6147,0.114521 -0.91041,0.361187 -0.31028,0.259387 -0.54031,0.591208 -0.73206,1.053213 -0.19087,0.46201 -0.28484,0.920097 -0.30353,1.464325 -0.003,0.02156 -0.003,0.04014 -0.003,0.06166 -0.007,0.299522 0.0127,0.573591 0.0587,0.839832 -0.67344,-0.335738 -1.53501,-0.580545 -2.13014,-0.722474 -0.0342,-0.257434 -0.0538,-0.522694 -0.0597,-0.800681 v -0.07537 c -0.0108,-0.984699 0.15074,-1.829426 0.52954,-2.686877 0.37881,-0.858431 0.84767,-1.475088 1.5073,-1.977227 0.66071,-0.501158 1.30976,-0.731184 2.07804,-0.73901 h 0.0362 c 0.75174,0 1.39483,0.221212 2.05553,0.699857 0.6705,0.487453 1.15404,1.096284 1.54361,1.947861 0.38174,0.830047 0.56576,1.64149 0.58446,2.603676 -1e-4,0.02544 -1e-4,0.04699 0.007,0.07243 z" />
    <path
       sodipodi:nodetypes="cccccccccccccccccccccccccccccc"
       style="fill:#ffffff;stroke-width:0.09788252"
       inkscape:connector-curvature="0"
       id="path17"
       d="m 122.50833,41.790378 c -0.0989,0.0284 -0.19479,0.05873 -0.28973,0.09103 -0.53836,0.185977 -0.9658,0.39122 -1.37886,0.664311 0.0402,-0.285813 0.046,-0.575545 0.0147,-0.899538 -0.003,-0.01763 -0.003,-0.03228 -0.003,-0.04992 -0.0431,-0.429703 -0.13411,-0.789913 -0.28582,-1.154036 -0.16151,-0.378805 -0.34259,-0.646024 -0.58044,-0.851578 -0.21534,-0.185978 -0.41894,-0.272114 -0.64407,-0.270155 -0.0225,0 -0.0459,9.39e-4 -0.0695,0.0029 -0.25254,0.02156 -0.46201,0.144866 -0.66071,0.386636 -0.19772,0.240793 -0.32791,0.54031 -0.42187,0.937714 -0.094,0.396427 -0.11845,0.785999 -0.0793,1.233323 0,0.01763 0.004,0.03228 0.004,0.04992 0.0431,0.43362 0.13018,0.79383 0.28483,1.157954 0.15858,0.374887 0.3426,0.642111 0.58045,0.84766 0.0402,0.03425 0.0793,0.06559 0.11844,0.09299 -0.24666,0.190868 -0.41239,0.326255 -0.61599,0.475039 -0.13018,0.09495 -0.28483,0.20849 -0.46494,0.341606 -0.39251,-0.368037 -0.69888,-0.830042 -0.96708,-1.439849 -0.31714,-0.720416 -0.48648,-1.441808 -0.53738,-2.293391 v -0.0069 c -0.0469,-0.851578 0.0362,-1.583738 0.27016,-2.341352 0.23492,-0.757609 0.54814,-1.305751 1.0033,-1.756012 0.45417,-0.451237 0.91227,-0.678326 1.46432,-0.706711 0.0431,-0.002 0.0851,-0.0029 0.12725,-0.0029 0.50018,9.4e-4 0.94652,0.167379 1.40853,0.536398 0.50115,0.40034 0.87996,0.912265 1.1971,1.633658 0.31812,0.721392 0.48745,1.44279 0.53444,2.294367 v 0.0069 c 0.0225,0.357274 0.0196,0.693989 -0.009,1.019937 z" />
    <path
       style="opacity:1;fill:#202020;fill-opacity:1;stroke:none;stroke-width:0.09788252"
       d="m 125.01966,43.827284 c 0.0633,0.203225 0.39084,0.169543 0.58008,0.267013 0.16605,0.08553 0.29961,0.272986 0.48631,0.278379 0.17819,0.0052 0.45551,-0.06171 0.47869,-0.238461 0.0306,-0.233507 -0.31037,-0.381898 -0.5298,-0.467446 -0.28235,-0.110091 -0.64412,-0.165946 -0.90899,-0.01868 -0.0607,0.03372 -0.12695,0.112884 -0.10629,0.179186 z"
       id="path28396-7"
       inkscape:connector-curvature="0"
       sodipodi:nodetypes="aaaaaaa" />
    <path
       sodipodi:nodetypes="aaaaaaa"
       inkscape:connector-curvature="0"
       id="path5461"
       d="m 123.08508,43.827284 c -0.0633,0.203225 -0.39085,0.169543 -0.58008,0.267013 -0.16605,0.08553 -0.29961,0.272986 -0.48631,0.278379 -0.17819,0.0052 -0.45551,-0.06171 -0.47869,-0.238461 -0.0306,-0.233507 0.31037,-0.381898 0.5298,-0.467446 0.28235,-0.110091 0.64412,-0.165946 0.90899,-0.01868 0.0607,0.03372 0.12695,0.112884 0.10629,0.179186 z"
       style="opacity:1;fill:#202020;fill-opacity:1;stroke:none;stroke-width:0.09788252" />
  </g>
</svg>
