<?xml version="1.0" standalone="no"?>
<!DOCTYPE svg PUBLIC "-//W3C//DTD SVG 20010904//EN"
 "http://www.w3.org/TR/2001/REC-SVG-20010904/DTD/svg10.dtd">
<svg version="1.0" xmlns="http://www.w3.org/2000/svg"
 width="804.000000pt" height="804.000000pt" viewBox="0 0 804.000000 804.000000"
 preserveAspectRatio="xMidYMid meet">
<metadata>
Created by potrace 1.11, written by Peter Selinger 2001-2013
</metadata>
<g transform="translate(0.000000,804.000000) scale(0.100000,-0.100000)"
fill="#000000" stroke="none">
<path d="M4029 8035 c-2 -1 -38 -6 -79 -10 -41 -4 -78 -9 -82 -11 -4 -3 -26
-7 -50 -10 -71 -10 -247 -72 -328 -115 -267 -144 -434 -381 -509 -725 -35
-162 -44 -266 -44 -504 0 -167 3 -239 19 -515 12 -194 9 -276 -17 -445 -15
-98 -15 -97 -44 -210 -62 -235 -188 -474 -355 -675 -154 -184 -376 -499 -494
-700 -33 -55 -71 -120 -86 -145 -40 -69 -144 -285 -183 -380 -48 -119 -50
-124 -52 -130 0 -3 -13 -41 -27 -85 -32 -94 -56 -183 -68 -245 -5 -25 -11 -54
-13 -65 -7 -31 -20 -116 -23 -150 -6 -61 -5 -271 1 -318 6 -46 5 -50 -32 -90
-21 -23 -80 -96 -130 -163 -101 -134 -138 -164 -268 -213 -44 -17 -83 -31 -88
-31 -4 0 -41 -16 -82 -35 -124 -59 -209 -157 -241 -279 -13 -48 -12 -189 0
-266 3 -19 8 -51 11 -70 3 -19 7 -51 10 -70 13 -80 7 -185 -14 -250 -45 -137
-54 -186 -55 -290 -1 -95 2 -110 27 -162 60 -122 161 -176 412 -222 11 -2 47
-7 80 -10 33 -4 74 -9 90 -11 17 -2 53 -7 80 -10 291 -35 423 -69 600 -155
182 -88 306 -131 465 -159 129 -24 313 -22 410 3 157 41 293 137 366 257 29
48 41 59 62 60 15 0 34 2 43 4 8 1 42 6 74 10 32 3 113 17 179 30 271 53 480
71 621 53 33 -4 84 -10 114 -14 30 -3 62 -7 71 -9 8 -2 43 -6 75 -10 33 -4 69
-9 80 -11 37 -7 169 -15 253 -16 67 -1 85 -5 89 -17 64 -210 259 -390 468
-434 68 -15 232 -16 300 -2 203 42 432 182 604 370 183 199 284 273 586 423
110 55 227 116 260 136 220 132 275 285 175 487 -30 61 -114 179 -169 239 -52
57 -88 145 -134 330 -26 101 -57 201 -75 236 -36 71 -107 145 -169 175 -48 23
-51 34 -28 98 8 23 14 44 14 46 0 3 4 29 10 58 27 136 34 208 34 347 0 107 -2
136 -19 260 -5 37 -33 173 -49 240 -12 49 -53 169 -87 255 -134 337 -358 700
-648 1050 -36 44 -101 125 -144 180 -42 55 -84 108 -93 119 -46 56 -177 263
-215 341 -42 83 -94 220 -104 269 -6 34 -14 69 -21 96 -3 14 -7 153 -9 310 -3
312 -11 621 -18 660 -3 14 -7 50 -10 80 -45 463 -212 826 -463 1012 -193 142
-379 197 -684 203 -97 2 -178 2 -180 0z"/>
</g>
</svg>
